# xmcd CD database file
#
# Track frame offsets:
#	150
#	1672
#	6177
#	22712
#	49033
#	50866
#	70664
#	84642
#	99783
#	119405
#	137108
#	162787
#	188088
#
# Disc length: 2849 seconds
#
# Revision: 1
# Processed by: cddbd v1.5.2PL0 Copyright (c) Steve Scherf et al.
# Submitted via: CDex 1.70beta2
#
DISCID=960b1f0d
DTITLE=Miles Davis - The Collection - Disk 2
DYEAR=2005
DGENRE=Jazz
TTITLE0=Birth of the Cool Theme
TTITLE1=Introduction
TTITLE2=Why Do I Love You
TTITLE3=Godchild
TTITLE4=Introduction 2
TTITLE5=S'il vous plait
TTITLE6=Moon Dreams
TTITLE7=Budo (Hallucination)
TTITLE8=Darn That Dream
TTITLE9=52nd Street Theme
TTITLE10=Half Nelson
TTITLE11=You Go To My Head
TTITLE12=Chasin' the Bird
EXTD=YEAR: 2005
EXTT0=
EXTT1=
EXTT2=
EXTT3=
EXTT4=
EXTT5=
EXTT6=
EXTT7=
EXTT8=
EXTT9=
EXTT10=
EXTT11=
EXTT12=
PLAYORDER=
